<?xml version="1.0" standalone="no"?>
<!DOCTYPE svg PUBLIC "-//W3C//DTD SVG 20010904//EN"
 "http://www.w3.org/TR/2001/REC-SVG-20010904/DTD/svg10.dtd">
<svg version="1.0" xmlns="http://www.w3.org/2000/svg"
 width="1920.000000pt" height="1920.000000pt" viewBox="0 0 1920.000000 1920.000000"
 preserveAspectRatio="xMidYMid meet">
<metadata>
Created by potrace 1.11, written by Peter Selinger 2001-2013
</metadata>
<g transform="translate(0.000000,1920.000000) scale(0.100000,-0.100000)"
fill="#000000" stroke="none">
<path d="M6125 19183 c-27 -3 -151 -26 -213 -39 -68 -14 -222 -73 -327 -125
-327 -162 -562 -408 -622 -648 -8 -36 -9 -219 0 -256 11 -50 51 -160 59 -163
5 -2 8 -8 8 -12 0 -19 54 -87 108 -138 64 -58 175 -117 392 -207 274 -113 436
-248 558 -463 23 -41 42 -75 42 -77 0 -2 5 -16 11 -32 6 -15 10 -30 9 -32 -1
-2 2 -7 7 -10 7 -5 87 -198 97 -236 3 -11 12 -35 31 -85 19 -48 50 -134 51
-140 0 -3 6 -18 13 -35 7 -16 14 -34 15 -40 1 -5 7 -23 13 -40 6 -16 15 -39
19 -50 4 -11 8 -22 9 -25 1 -3 4 -12 8 -20 3 -8 22 -62 42 -120 20 -58 46
-130 57 -160 11 -30 21 -59 22 -65 1 -5 4 -14 7 -20 8 -12 42 -118 42 -125 -1
-3 7 -21 17 -40 10 -19 18 -39 19 -45 2 -16 11 -48 21 -70 4 -11 18 -49 30
-85 12 -36 24 -72 27 -80 4 -8 7 -18 8 -22 2 -5 4 -10 5 -13 1 -3 4 -9 5 -15
1 -5 3 -11 5 -12 1 -2 3 -10 5 -18 2 -8 13 -39 24 -68 11 -29 20 -55 20 -58 1
-2 -61 -36 -136 -75 -76 -39 -163 -86 -194 -105 -31 -19 -62 -34 -68 -34 -6 0
-11 -4 -11 -9 0 -5 -8 -11 -17 -14 -10 -4 -34 -16 -54 -29 -20 -13 -63 -39
-95 -58 -33 -19 -63 -38 -69 -42 -5 -5 -69 -48 -140 -96 -139 -94 -192 -131
-211 -147 -7 -5 -24 -19 -40 -30 -15 -11 -32 -24 -38 -30 -6 -5 -38 -30 -71
-54 -33 -25 -62 -47 -65 -50 -3 -4 -30 -26 -60 -51 -30 -25 -60 -49 -66 -55
-6 -5 -36 -31 -66 -57 -30 -26 -67 -59 -83 -73 l-27 -26 -15 28 c-17 33 -50
128 -56 164 -3 13 -8 41 -12 62 -4 20 -8 86 -9 145 -1 59 -5 113 -9 119 -4 7
-3 14 3 18 6 4 9 9 6 13 -2 4 -7 34 -10 67 -18 153 -72 250 -191 341 -122 93
-306 108 -462 38 -17 -8 -38 -14 -47 -14 -9 0 -16 -4 -16 -10 0 -5 -9 -10 -20
-10 -11 0 -20 -4 -20 -9 0 -5 -10 -13 -22 -17 -68 -21 -261 -184 -349 -294
-45 -56 -118 -170 -147 -230 -103 -214 -98 -425 13 -568 40 -52 135 -132 157
-132 7 0 18 -4 24 -8 25 -23 112 -35 269 -38 248 -4 323 -15 432 -60 l62 -26
-43 -47 c-24 -25 -57 -62 -72 -81 -16 -19 -31 -37 -35 -40 -3 -3 -47 -57 -97
-120 -51 -63 -101 -125 -112 -137 -11 -12 -20 -26 -20 -31 0 -5 -7 -16 -16
-23 -9 -8 -27 -30 -39 -50 -13 -20 -29 -42 -37 -50 -7 -8 -31 -42 -53 -76 -22
-35 -43 -63 -47 -63 -5 0 -8 -5 -8 -10 0 -6 -25 -46 -55 -90 -30 -44 -55 -82
-55 -86 0 -3 -15 -29 -34 -57 -19 -29 -43 -68 -54 -87 -11 -19 -37 -66 -59
-105 -49 -86 -95 -170 -117 -212 -17 -34 -22 -34 -96 -5 -8 3 -18 6 -22 7 -5
2 -9 3 -10 5 -2 1 -10 3 -18 5 -18 5 -299 103 -320 112 -8 3 -17 7 -20 8 -11
2 -86 27 -100 32 -8 3 -19 7 -25 9 -5 1 -35 12 -65 24 -30 12 -59 22 -65 24
-23 5 -61 18 -80 26 -11 5 -74 27 -140 50 -66 22 -128 45 -137 50 -10 6 -26
10 -36 10 -10 0 -22 4 -28 10 -5 5 -19 11 -31 13 -11 1 -28 9 -37 16 -9 7 -16
11 -16 7 0 -5 -86 23 -135 44 -11 5 -65 25 -120 45 -290 106 -475 241 -602
437 -37 57 -109 200 -152 303 -84 199 -179 339 -271 402 -77 52 -179 98 -235
106 -11 1 -24 5 -30 8 -10 6 -170 2 -210 -4 -11 -2 -37 -11 -59 -20 -21 -10
-42 -17 -47 -17 -5 0 -24 -9 -42 -19 -19 -11 -45 -25 -58 -33 -13 -7 -26 -15
-29 -18 -3 -3 -26 -22 -51 -42 -229 -184 -412 -501 -488 -843 -79 -359 -26
-644 152 -825 37 -38 75 -70 83 -70 8 0 14 -4 14 -9 0 -7 87 -50 170 -82 47
-18 230 -18 295 0 53 15 193 67 260 97 22 10 45 19 50 20 6 2 57 20 115 39 58
20 113 37 123 38 9 1 17 4 17 7 0 9 298 21 315 11 5 -2 18 -6 30 -7 89 -10
237 -59 395 -131 30 -14 84 -39 120 -55 96 -44 114 -51 123 -50 4 1 7 -2 7 -8
0 -5 4 -10 9 -10 9 0 85 -35 290 -131 57 -27 110 -49 117 -49 8 0 14 -3 14 -8
0 -6 90 -53 110 -57 6 -2 160 -76 372 -179 86 -42 161 -76 167 -76 6 0 11 -4
11 -10 0 -5 6 -10 13 -10 6 0 20 -7 30 -14 17 -13 17 -17 -7 -87 -28 -79 -83
-258 -91 -293 -3 -12 -18 -71 -35 -132 -16 -61 -31 -122 -34 -135 -3 -13 -10
-42 -15 -64 -11 -45 -10 -38 -45 -225 -13 -74 -28 -157 -32 -185 -3 -27 -8
-59 -10 -70 -3 -11 -7 -39 -9 -63 -3 -24 -7 -60 -10 -80 -3 -20 -7 -55 -10
-77 -9 -77 -28 -300 -27 -328 1 -24 -25 -16 -103 30 -72 43 -129 91 -255 214
-97 93 -193 165 -240 176 -14 3 -29 8 -35 12 -27 15 -166 21 -215 9 -19 -5
-42 -11 -50 -12 -27 -6 -54 -19 -100 -49 -174 -116 -283 -385 -283 -697 0
-139 5 -177 48 -360 9 -43 62 -157 95 -208 54 -84 113 -138 194 -177 104 -50
178 -57 326 -30 3 0 29 13 59 28 64 33 87 51 207 165 109 105 173 162 180 162
3 0 21 12 40 26 19 15 34 23 34 19 0 -5 8 -2 18 7 23 19 72 39 73 30 0 -4 2
-15 4 -26 2 -10 6 -66 9 -125 3 -58 8 -124 10 -146 3 -22 8 -69 11 -105 3 -36
8 -78 10 -95 6 -40 13 -89 20 -150 4 -27 8 -57 10 -65 3 -8 7 -33 10 -55 3
-22 8 -51 11 -65 2 -14 7 -37 9 -51 3 -15 15 -71 26 -125 12 -55 23 -108 24
-119 1 -11 5 -27 8 -35 4 -8 8 -26 10 -40 2 -14 6 -32 10 -40 3 -8 12 -42 20
-75 28 -110 58 -218 88 -313 17 -51 29 -95 27 -97 -5 -4 -374 -183 -448 -217
-36 -16 -72 -33 -80 -38 -26 -17 -85 -43 -92 -42 -3 1 -12 -5 -18 -13 -7 -8
-18 -15 -26 -15 -7 0 -44 -16 -81 -35 -37 -19 -126 -62 -198 -96 -71 -34 -176
-83 -233 -110 -57 -27 -108 -49 -113 -49 -5 0 -9 -5 -9 -11 0 -5 -4 -8 -9 -4
-5 3 -15 -1 -23 -8 -7 -7 -16 -14 -20 -15 -27 -8 -52 -18 -118 -49 -41 -19
-83 -37 -94 -39 -10 -2 -24 -8 -32 -15 -8 -6 -14 -8 -14 -5 0 4 -9 2 -19 -4
-17 -8 -93 -31 -156 -46 -74 -17 -275 -23 -340 -9 -16 3 -41 8 -55 10 -26 5
-93 23 -120 33 -8 3 -22 6 -31 8 -9 2 -29 9 -45 15 -16 7 -31 13 -34 14 -3 1
-22 9 -42 18 -21 10 -44 17 -53 17 -8 0 -15 5 -15 12 0 6 -3 8 -7 5 -3 -4 -11
-3 -17 2 -7 6 -23 12 -36 15 -14 3 -48 14 -76 25 -28 11 -64 22 -80 25 -16 2
-29 5 -29 6 0 4 -82 12 -130 13 -59 0 -147 -11 -155 -21 -3 -4 -9 -7 -15 -7
-34 -1 -165 -65 -205 -101 -163 -147 -224 -293 -225 -539 0 -152 10 -241 41
-355 9 -30 19 -71 24 -90 5 -19 20 -62 33 -95 151 -375 393 -652 652 -747 166
-61 377 -36 531 64 118 76 178 167 294 443 91 216 156 322 258 424 73 72 128
121 138 121 3 0 18 8 32 18 57 40 151 85 281 137 144 56 780 289 846 309 6 2
24 9 40 15 17 7 37 14 45 16 18 4 217 73 245 85 30 13 59 23 72 26 7 1 70 23
141 48 72 25 136 46 144 46 8 0 34 -40 58 -90 24 -49 48 -90 52 -90 4 0 8 -6
8 -14 0 -13 98 -189 158 -285 12 -20 25 -43 29 -51 4 -8 11 -19 16 -25 4 -5
44 -66 89 -135 44 -69 84 -127 89 -128 5 -2 9 -8 9 -13 0 -8 43 -69 84 -119 6
-9 26 -36 43 -60 17 -25 39 -55 49 -67 11 -12 30 -37 44 -54 25 -33 114 -143
138 -169 7 -8 34 -40 61 -70 100 -113 110 -125 103 -131 -10 -9 -141 -48 -185
-55 -36 -5 -68 -7 -307 -18 -170 -7 -270 -47 -365 -147 -48 -50 -101 -138
-113 -189 -14 -58 -12 -175 3 -237 15 -62 25 -89 58 -163 14 -30 88 -153 97
-160 4 -3 11 -13 16 -22 37 -67 218 -232 339 -309 158 -101 358 -149 487 -119
152 37 295 160 329 286 19 67 21 78 25 176 2 53 4 101 5 105 1 4 0 13 -1 18
-5 28 3 155 14 225 9 57 45 170 54 170 4 0 28 -20 53 -43 88 -80 180 -155 379
-308 54 -42 260 -189 264 -189 3 0 44 -26 93 -59 96 -64 248 -156 358 -216 39
-21 86 -47 105 -59 19 -11 37 -21 40 -21 3 -1 33 -15 68 -33 58 -30 73 -48 55
-66 -5 -4 -8 -11 -8 -14 -1 -11 -14 -50 -46 -139 -17 -45 -32 -90 -34 -100 -3
-10 -18 -56 -35 -103 -17 -47 -33 -92 -36 -100 -3 -8 -5 -16 -5 -18 1 -1 -5
-17 -13 -36 -8 -19 -12 -37 -8 -40 3 -3 0 -6 -6 -6 -7 0 -12 -6 -12 -14 0 -8
-27 -90 -61 -183 -33 -92 -62 -172 -63 -178 -2 -5 -6 -23 -11 -40 -4 -16 -11
-34 -15 -40 -4 -5 -17 -41 -30 -80 -12 -38 -28 -83 -35 -100 -12 -28 -69 -184
-71 -195 0 -3 -4 -14 -9 -25 -4 -11 -23 -60 -42 -110 -98 -253 -220 -416 -409
-548 -42 -29 -186 -102 -269 -137 -88 -37 -262 -124 -300 -150 -44 -30 -109
-91 -148 -139 -18 -22 -89 -165 -95 -192 -35 -146 -24 -287 31 -409 93 -204
382 -449 662 -560 11 -4 36 -15 55 -23 77 -33 273 -79 390 -92 392 -44 666 82
797 365 24 54 33 83 36 128 1 12 5 22 8 22 15 0 -4 224 -21 245 -7 8 -10 15
-6 15 3 0 -1 19 -10 43 -18 47 -17 44 -72 177 -21 52 -45 113 -51 135 -7 22
-16 49 -21 60 -30 70 -43 158 -45 308 -1 86 1 157 6 157 4 0 6 8 4 18 -1 9 0
22 4 27 3 6 6 15 8 20 1 6 4 21 7 34 7 32 27 94 35 106 3 6 6 15 7 21 1 5 13
36 28 67 14 32 26 60 26 64 0 3 12 31 26 62 137 289 167 355 168 361 1 3 13
30 28 60 14 30 54 114 88 185 33 72 70 147 81 168 11 20 17 37 12 37 -4 0 -2
4 5 9 7 4 14 14 16 22 1 8 8 25 16 39 8 14 15 27 15 30 0 3 19 42 43 88 23 45
39 82 35 82 -4 0 -3 4 3 8 9 5 51 85 59 112 9 29 99 199 104 196 3 -2 53 -18
111 -36 58 -18 124 -39 147 -46 23 -7 52 -16 65 -18 13 -3 57 -14 98 -26 41
-11 149 -36 240 -56 184 -40 180 -39 270 -54 36 -5 74 -12 85 -14 37 -7 100
-16 145 -21 25 -3 56 -7 70 -10 14 -2 54 -7 90 -10 36 -4 81 -8 100 -10 62 -6
204 -17 245 -19 30 -1 39 -5 36 -16 -2 -8 -4 -19 -5 -25 -2 -11 -75 -143 -88
-160 -36 -45 -104 -121 -162 -180 -38 -38 -87 -95 -110 -125 -22 -30 -43 -57
-47 -60 -8 -7 -37 -83 -45 -117 -3 -15 -8 -60 -9 -100 -9 -191 91 -342 287
-437 89 -42 212 -80 308 -94 62 -9 262 -8 335 1 73 10 245 55 262 69 7 6 13 8
13 5 0 -3 33 12 73 35 73 41 187 141 187 165 0 7 4 13 9 13 9 0 52 93 58 125
8 47 9 216 1 221 -4 3 -8 14 -8 25 0 48 -70 145 -213 293 -80 82 -177 204
-177 221 0 4 -9 20 -21 36 -11 16 -18 29 -15 29 3 0 -2 16 -10 35 -11 27 -11
35 -2 36 46 4 85 7 173 13 249 18 522 54 740 97 55 11 111 23 125 25 21 4 114
26 173 40 9 2 25 6 35 8 9 2 37 9 62 16 25 7 52 14 60 15 8 2 30 8 48 14 17 5
32 7 32 4 0 -3 6 -1 13 5 6 6 39 17 72 26 33 8 101 29 150 46 50 16 93 30 97
30 4 0 22 -30 38 -66 17 -36 69 -142 115 -235 46 -93 81 -169 78 -169 -3 0 0
-8 8 -17 18 -21 79 -148 79 -163 0 -5 4 -10 10 -10 5 0 9 -3 8 -7 -4 -12 23
-73 32 -73 3 0 7 -6 7 -12 0 -7 29 -71 64 -143 35 -71 64 -132 65 -135 1 -6
80 -172 128 -269 19 -39 36 -75 37 -79 1 -4 16 -38 34 -77 41 -87 105 -259
110 -294 2 -14 6 -36 9 -47 14 -67 19 -109 20 -199 1 -55 0 -104 -3 -110 -2
-5 -6 -23 -8 -40 -5 -45 -32 -147 -54 -207 -11 -29 -22 -57 -23 -63 -4 -14
-16 -45 -31 -80 -34 -80 -85 -227 -90 -261 -4 -22 -9 -52 -12 -69 -10 -56 -5
-154 11 -225 9 -43 77 -190 88 -190 4 0 8 -6 8 -13 0 -22 104 -119 172 -160
115 -69 245 -97 438 -92 134 3 269 26 406 70 87 28 85 27 199 81 209 98 436
275 530 415 16 24 33 46 36 49 15 12 76 161 87 215 11 49 4 257 -8 273 -2 1
-3 5 -4 10 -11 46 -64 157 -93 193 -77 99 -161 153 -384 250 -207 90 -263 118
-337 168 -169 115 -308 298 -388 514 -9 23 -20 51 -24 62 -16 36 -94 247 -96
255 0 3 -8 22 -17 44 -9 21 -17 43 -17 48 0 5 -7 22 -15 38 -8 16 -17 37 -18
47 -2 10 -7 25 -10 33 -9 20 -98 272 -101 285 -2 6 -8 24 -15 40 -17 40 -41
106 -46 125 -2 8 -20 59 -39 114 -20 54 -34 102 -31 106 3 5 1 10 -5 12 -6 2
-12 12 -15 23 -2 11 -24 76 -48 145 -25 69 -48 134 -52 145 -3 11 -11 30 -16
43 -5 13 -9 28 -9 35 0 7 42 34 93 60 50 27 110 59 132 71 108 60 142 80 165
96 14 9 30 19 35 21 50 20 510 335 563 386 7 7 17 13 20 13 4 0 18 10 32 23
14 12 52 43 85 69 51 40 110 90 159 133 6 6 43 38 82 73 l72 62 21 -45 c20
-42 48 -146 56 -205 2 -14 7 -95 10 -180 3 -85 8 -171 11 -190 5 -40 12 -75
14 -75 1 0 3 -8 5 -18 2 -10 7 -26 11 -35 4 -9 8 -19 9 -22 6 -26 46 -81 94
-130 134 -137 320 -166 528 -84 75 29 185 90 222 123 13 12 28 21 33 21 8 0
193 183 222 220 65 81 149 238 180 335 19 59 34 163 30 203 -12 99 -23 135
-63 206 -46 79 -161 180 -217 189 -10 1 -24 5 -29 9 -23 14 -95 21 -263 24
-242 4 -275 9 -400 56 -47 18 -51 22 -39 37 41 50 133 157 138 161 7 7 199
250 224 284 11 16 31 43 45 62 14 18 36 49 50 69 14 20 35 49 48 65 12 15 22
33 22 39 0 6 4 11 9 11 5 0 14 13 21 30 7 16 16 30 20 30 4 0 13 13 20 30 7
16 16 30 21 30 5 0 9 5 9 10 0 6 24 47 53 93 30 45 57 89 60 97 4 8 18 33 31
55 55 95 118 209 162 296 26 52 52 97 57 100 5 4 73 -16 150 -44 78 -27 152
-52 165 -54 12 -3 22 -10 22 -16 0 -6 3 -8 6 -5 5 6 70 -12 119 -32 11 -4 47
-17 80 -28 136 -47 351 -123 365 -129 8 -3 20 -7 25 -8 20 -5 171 -58 200 -70
17 -7 50 -20 75 -28 111 -37 258 -90 289 -104 18 -8 39 -16 45 -17 57 -8 334
-144 374 -183 7 -7 17 -13 22 -13 13 0 171 -161 207 -211 49 -70 102 -172 178
-344 39 -88 87 -188 108 -221 34 -57 136 -174 150 -174 3 0 23 -12 44 -26 34
-23 69 -40 128 -64 75 -30 182 -41 277 -28 437 60 861 728 843 1328 -4 121 -6
142 -31 230 -43 155 -160 299 -301 373 -40 21 -73 35 -73 31 0 -3 -6 -2 -12 4
-7 5 -26 13 -43 16 -16 3 -41 9 -55 12 -33 6 -138 6 -170 -1 -14 -3 -36 -8
-50 -11 -14 -3 -32 -7 -40 -9 -8 -2 -17 -4 -20 -5 -3 -1 -8 -2 -12 -1 -5 0 -8
-4 -8 -9 0 -5 -3 -9 -7 -8 -12 3 -51 -10 -143 -49 -47 -19 -103 -42 -125 -50
-22 -8 -47 -19 -56 -23 -17 -9 -165 -46 -224 -56 -22 -4 -83 -7 -135 -7 -101
0 -150 6 -252 32 -21 5 -38 6 -38 2 0 -3 -4 -1 -8 4 -4 6 -25 16 -47 23 -22 7
-50 18 -62 23 -13 5 -33 13 -45 18 -24 10 -109 48 -193 86 -27 12 -68 31 -90
40 -22 10 -75 35 -118 56 -43 21 -79 38 -80 38 -1 0 -38 17 -82 37 -44 21 -83
37 -87 36 -5 -1 -8 2 -8 7 0 5 -10 12 -22 16 -13 4 -25 8 -28 9 -3 1 -50 24
-105 50 -55 26 -143 69 -195 93 -52 25 -171 83 -265 128 -93 45 -200 97 -238
115 -37 18 -69 35 -72 39 -2 4 7 43 21 86 20 65 52 177 70 245 2 8 15 58 28
110 14 52 27 106 30 120 3 14 7 36 10 50 3 14 10 48 16 75 6 28 13 61 16 75 9
44 52 303 58 355 8 67 16 132 22 175 3 19 7 62 9 95 3 33 7 89 11 125 3 36 6
76 7 90 2 31 15 30 99 -11 110 -53 163 -93 318 -245 92 -90 158 -143 178 -144
6 0 12 -5 12 -11 0 -5 4 -7 10 -4 5 3 10 2 10 -3 0 -8 50 -27 104 -38 65 -15
200 -3 247 22 15 7 29 10 33 7 3 -4 6 -1 6 5 0 7 5 12 10 12 19 0 94 62 133
109 21 25 58 87 82 136 99 206 127 479 74 730 -71 334 -240 515 -493 529 -145
7 -246 -44 -411 -209 -99 -99 -202 -181 -273 -216 -37 -19 -70 -34 -74 -35 -5
-1 -9 -2 -10 -4 -2 -1 -14 -4 -28 -6 -24 -4 -25 -2 -26 48 0 56 -13 252 -19
303 -1 17 -6 59 -9 95 -4 36 -9 79 -11 95 -3 17 -7 46 -9 65 -3 19 -8 53 -11
75 -3 22 -8 54 -10 72 -11 75 -63 349 -75 393 -6 19 -12 46 -14 60 -4 26 -54
215 -81 310 -9 30 -18 62 -20 70 -2 8 -19 64 -38 123 l-35 108 59 26 c32 14
59 29 59 33 0 4 6 7 13 7 6 0 98 43 202 94 105 51 192 93 195 94 3 0 16 7 30
15 14 8 27 15 30 15 19 4 126 59 128 66 2 5 8 6 14 3 6 -4 13 -3 17 2 3 5 31
20 61 34 30 14 58 29 61 33 3 5 8 7 10 5 2 -1 42 16 89 39 143 70 245 116 253
115 4 -1 7 3 7 9 0 5 5 7 10 4 6 -3 10 -1 10 4 0 6 6 11 13 11 8 0 52 19 98
42 46 23 86 42 89 43 3 0 21 8 40 17 187 86 267 115 405 144 136 29 280 21
445 -23 52 -14 101 -26 108 -26 6 0 12 -4 12 -8 0 -3 24 -14 53 -23 28 -10 67
-24 86 -33 18 -8 39 -16 45 -17 6 -1 17 -5 23 -9 15 -9 116 -43 153 -51 89
-20 118 -23 183 -20 66 3 118 9 125 14 1 2 5 3 10 4 4 1 13 5 20 9 6 5 12 6
12 3 0 -9 113 45 159 77 50 34 151 135 151 151 0 5 6 17 14 25 23 27 67 150
81 229 17 94 12 304 -9 412 -18 89 -57 226 -85 298 -90 228 -267 483 -415 595
-16 12 -37 29 -46 39 -19 17 -170 100 -170 93 0 -2 -16 3 -35 11 -118 49 -310
33 -455 -40 -95 -47 -147 -93 -208 -184 -34 -49 -112 -202 -112 -218 0 -3 -11
-30 -25 -60 -14 -30 -25 -57 -25 -61 0 -13 -102 -208 -132 -251 -52 -77 -168
-190 -248 -243 -41 -27 -79 -53 -85 -57 -15 -12 -91 -46 -170 -77 -38 -15 -83
-33 -100 -40 -16 -7 -43 -18 -60 -24 -16 -6 -43 -16 -60 -22 -16 -7 -32 -13
-35 -13 -8 -2 -103 -37 -135 -51 -16 -7 -73 -27 -125 -45 -52 -18 -106 -37
-120 -43 -14 -5 -31 -11 -39 -13 -7 -1 -36 -12 -65 -23 -28 -11 -98 -36 -156
-56 -125 -43 -129 -44 -135 -45 -3 0 -19 -7 -35 -15 -17 -9 -30 -13 -30 -10 0
3 -13 -1 -29 -10 -17 -8 -38 -16 -48 -18 -10 -2 -28 -9 -40 -15 -13 -7 -23
-11 -23 -8 0 2 -35 -9 -77 -26 -43 -16 -89 -31 -102 -34 -14 -3 -29 -8 -35
-12 -6 -4 -13 -7 -16 -7 -3 -1 -36 -12 -75 -25 -38 -13 -72 -25 -75 -25 -3 -1
-12 -5 -20 -8 -50 -22 -60 -15 -106 73 -81 153 -193 345 -276 473 -32 48 -58
92 -58 96 0 5 -3 11 -7 13 -5 2 -28 32 -53 68 -24 36 -48 67 -52 68 -4 2 -8 8
-8 13 0 11 -126 181 -213 288 -34 42 -69 85 -77 95 -8 10 -23 27 -32 38 -10
10 -16 18 -14 18 2 0 -10 15 -27 33 -18 18 -52 55 -76 82 -24 28 -53 60 -64
72 l-20 23 74 34 c91 42 205 66 337 70 55 2 105 7 111 10 6 4 11 2 11 -4 0 -6
5 -8 12 -4 7 4 26 7 43 6 26 -2 69 4 150 22 38 8 105 38 105 47 0 5 6 9 13 9
11 0 95 77 124 113 16 21 64 116 70 141 3 11 7 60 9 107 3 94 -12 171 -52 255
-13 28 -24 54 -24 57 0 13 -86 145 -129 197 -123 151 -283 275 -441 343 -113
48 -188 64 -285 61 -125 -4 -220 -47 -310 -140 -95 -98 -121 -179 -124 -393
-2 -164 -6 -245 -16 -293 -11 -54 -47 -161 -66 -195 -10 -17 -15 -34 -12 -37
4 -3 3 -6 -1 -6 -3 0 -21 13 -39 29 -37 34 -58 53 -118 103 -24 20 -54 44 -65
55 -12 10 -36 29 -55 43 -18 14 -40 32 -49 40 -9 8 -32 26 -51 39 -19 13 -41
30 -49 38 -26 22 -170 126 -270 193 -52 35 -96 67 -98 72 -2 4 -7 8 -12 8 -4
0 -50 26 -101 59 -52 32 -114 70 -139 84 -102 59 -190 107 -275 152 -49 26
-94 51 -98 55 -5 4 -3 18 4 31 7 13 14 26 14 29 1 13 71 216 75 220 3 3 6 10
7 15 2 14 51 160 65 192 6 16 12 33 12 38 1 6 6 24 13 40 19 50 26 70 28 80 4
16 125 358 135 380 5 11 18 51 30 89 13 37 29 80 36 95 8 14 14 31 14 38 0 6
5 24 12 40 6 15 12 33 14 38 5 24 134 367 142 380 4 6 7 16 8 23 4 23 76 156
123 226 50 76 180 211 211 221 11 4 20 10 20 15 0 17 164 104 331 175 153 66
249 119 312 170 60 50 137 141 137 163 0 5 6 15 14 21 8 7 17 23 20 36 3 13
11 37 18 52 29 71 41 207 25 288 -39 205 -189 397 -437 562 -158 105 -385 201
-535 228 -11 2 -40 8 -65 14 -99 22 -270 30 -390 18 -80 -8 -194 -43 -263 -80
-65 -35 -190 -149 -201 -185 -4 -12 -11 -22 -16 -22 -8 0 -45 -80 -42 -92 1
-5 -3 -8 -10 -8 -6 0 -8 -3 -5 -7 4 -3 3 -11 -2 -17 -30 -39 -42 -218 -20
-299 6 -23 13 -49 14 -57 2 -8 4 -15 5 -15 1 0 3 -9 5 -21 4 -17 43 -116 75
-189 30 -69 80 -210 93 -265 24 -99 28 -137 29 -240 1 -111 -2 -128 -47 -312
-2 -10 -29 -78 -60 -150 -30 -73 -57 -137 -58 -143 -1 -5 -6 -13 -10 -16 -5
-3 -10 -12 -11 -20 -2 -8 -17 -44 -35 -81 -17 -37 -31 -71 -31 -74 0 -4 -7
-15 -16 -25 -8 -9 -16 -26 -17 -38 -1 -11 -5 -21 -9 -21 -4 0 -8 -4 -8 -10 0
-9 -46 -108 -151 -326 -27 -56 -49 -107 -49 -113 0 -6 -4 -11 -10 -11 -5 0
-10 -4 -10 -10 0 -9 -51 -119 -169 -361 -28 -58 -51 -111 -51 -117 0 -7 -5
-12 -11 -12 -5 0 -7 -4 -4 -10 3 -5 3 -10 -2 -10 -8 0 -49 -92 -44 -99 1 -2
-2 -7 -7 -10 -13 -8 -42 -67 -42 -84 0 -25 -29 -27 -88 -7 -54 18 -204 63
-317 94 -45 13 -163 42 -204 51 -179 39 -256 55 -288 60 -48 7 -80 13 -101 19
-9 3 -39 7 -67 11 -27 3 -63 8 -80 11 -37 7 -55 9 -180 23 -144 16 -198 21
-288 26 -44 3 -83 7 -85 10 -3 2 1 11 8 20 7 8 10 15 7 15 -13 0 55 134 97
193 24 34 86 105 136 157 128 133 155 166 190 235 40 79 45 101 44 220 0 95
-1 103 -37 175 -21 41 -50 89 -65 105 -100 110 -280 192 -487 222 -59 9 -260
9 -335 0 -134 -15 -304 -73 -397 -134 -58 -38 -143 -122 -143 -140 0 -7 -4
-13 -9 -13 -9 0 -27 -40 -22 -49 2 -2 -1 -7 -6 -10 -17 -11 -35 -94 -37 -176
-3 -79 23 -195 45 -203 5 -2 9 -9 9 -16 0 -15 85 -118 176 -213 38 -39 80 -84
94 -100 30 -33 110 -159 110 -171 0 -5 6 -22 14 -38 31 -65 30 -71 -11 -76
-21 -3 -62 -4 -91 -4 -28 1 -52 -1 -52 -4 0 -3 -21 -5 -48 -6 -71 -1 -333 -26
-402 -39 -14 -2 -47 -7 -75 -10 -27 -3 -102 -15 -165 -26 -63 -12 -128 -23
-145 -26 -63 -10 -70 -11 -70 -13 0 -2 -20 -6 -65 -14 -19 -4 -43 -9 -52 -12
-9 -3 -25 -6 -35 -8 -10 -2 -56 -14 -103 -26 -47 -12 -92 -23 -100 -25 -8 -2
-15 -4 -15 -5 0 -1 -7 -3 -15 -5 -32 -6 -107 -27 -150 -42 -25 -8 -52 -16 -60
-18 -8 -2 -31 -9 -50 -14 -19 -6 -36 -11 -38 -11 -2 0 -126 253 -235 480 -12
25 -26 48 -32 52 -5 4 -7 8 -3 8 4 0 -12 39 -36 88 -99 197 -331 688 -335 707
-1 6 -9 17 -17 26 -8 9 -16 25 -19 35 -2 11 -21 57 -43 104 -42 91 -49 110
-50 124 0 5 -4 12 -9 15 -15 10 -71 203 -80 271 -7 57 -9 270 -3 270 3 0 7 10
7 23 2 28 9 67 16 87 3 8 12 40 20 70 19 66 69 203 76 210 3 3 14 30 25 60 10
30 22 64 26 75 4 11 8 22 8 25 0 3 6 21 14 40 8 19 14 47 14 63 -1 15 1 27 4
27 4 0 7 12 7 28 1 15 4 37 7 50 3 13 1 34 -4 48 -6 16 -6 24 1 24 6 0 7 5 3
12 -4 7 -9 21 -10 33 -13 117 -92 269 -179 346 -11 10 -31 27 -45 39 -42 37
-166 90 -253 109 -77 17 -248 24 -332 14z"/>
</g>
</svg>
