<svg xmlns="http://www.w3.org/2000/svg" width="26.313" height="30.073" viewBox="0 0 26.313 30.073"><defs><style>.a{fill:#f5f5f7;}</style></defs><path class="a" d="M18.8,26.313v2.349a1.41,1.41,0,0,1-1.41,1.41H1.41A1.41,1.41,0,0,1,0,28.663V7.048a1.41,1.41,0,0,1,1.41-1.41H5.639V23.024a3.293,3.293,0,0,0,3.289,3.289Zm0-20.2V0H8.928a1.41,1.41,0,0,0-1.41,1.41V23.024a1.41,1.41,0,0,0,1.41,1.41H24.9a1.41,1.41,0,0,0,1.41-1.41V7.518H20.2A1.414,1.414,0,0,1,18.8,6.108ZM25.9,4.286,22.027.413a1.41,1.41,0,0,0-1-.413h-.356V5.639h5.639V5.283a1.41,1.41,0,0,0-.413-1Z"/></svg>