<svg xmlns="http://www.w3.org/2000/svg" width="26" height="26" viewBox="0 0 26 26"><defs><style>.a{fill:#f5f5f7;}</style></defs><path class="a" d="M14.5,9.773A4.727,4.727,0,1,0,19.227,14.5,4.726,4.726,0,0,0,14.5,9.773Zm10.565,3.545a10.63,10.63,0,0,0-9.384-9.384V1.5H13.318V3.935a10.63,10.63,0,0,0-9.384,9.384H1.5v2.364H3.935a10.63,10.63,0,0,0,9.384,9.384V27.5h2.364V25.065a10.63,10.63,0,0,0,9.384-9.384H27.5V13.318ZM14.5,22.773A8.273,8.273,0,1,1,22.773,14.5,8.267,8.267,0,0,1,14.5,22.773Z" transform="translate(-1.5 -1.5)"/></svg>