<?xml version="1.0" encoding="UTF-8"?>
<svg clipRule="evenodd" fillRule="evenodd" strokeLinejoin="round" strokeMiterlimit="2" version="1.1" viewBox="0 0 4e3 4e3" xml:space="preserve" xmlns="http://www.w3.org/2000/svg" xmlns:cc="http://creativecommons.org/ns#" xmlns:dc="http://purl.org/dc/elements/1.1/" xmlns:rdf="http://www.w3.org/1999/02/22-rdf-syntax-ns#" xmlns:serif="http://www.serif.com/"><metadata><rdf:RDF><cc:Work rdf:about=""><dc:format>image/svg+xml</dc:format><dc:type rdf:resource="http://purl.org/dc/dcmitype/StillImage"/><dc:title/></cc:Work></rdf:RDF></metadata>
    <path d="m1426.6 846.26c-50.29-145.16-100.3-287.02-124.12-344.5-63.9-154.19-193.35-104.15-234.85-204.29-45.52-109.84 71.1-188.02 137.8-216.68 63.97-27.493 202.39-55.62 246.55 50.944s-82.49 160.57-18.95 316.68c15.38 37.789 85.05 181.92 157.67 331.38 113.49-37.102 233.86-58.938 358.68-63.077-21.46-81.074-97.52-93.556-97.02-163.61 0.63-89.824 104.02-109.96 158.48-110.31 52.22-0.336 156.06 20.766 155.45 107.91-0.53 74.684-76.45 85.633-99.21 167.38 118.53 6.698 232.82 29.368 340.7 65.876 68.12-140.17 134.65-278.92 158.81-337.23 63.9-154.19-63.03-210.29-21.53-310.44 45.52-109.84 183.28-82.695 250.73-55.825 64.68 25.771 182.45 103.71 138.29 210.28s-171.92 55.24-237.42 210.53c-16.04 38.028-69.79 192.26-124.81 351.17 104.54 52.384 201.02 118.51 287.07 196 43.71-74.168-3.74-137.29 45.97-187.68 62.99-63.846 151.01-5.812 190.22 32.089 37.61 36.349 97.24 124.21 36.13 186.15-52.77 53.49-115.29 7.02-189.23 51.29 82.4 88.78 152.49 189.11 207.55 298.25 146.94-50.84 291.41-101.68 349.56-125.76 154.26-63.87 104.2-193.25 204.39-234.73 109.89-45.5 188.11 71.06 216.79 137.73 27.5 63.94 55.64 202.29-50.97 246.43s-160.65-82.45-316.82-18.93c-38.03 15.46-183.71 85.83-334.12 158.85 39.88 116.75 63.51 240.96 68.2 369.95 79.87-21.86 92.4-97.99 161.77-97.5 89.21 0.63 109.2 104.74 109.55 159.57 0.33 52.58-20.64 157.14-107.18 156.53-73.86-0.52-84.95-76.32-165.2-99.6-6.25 114.78-27.49 225.58-61.79 330.5 137.44 66.69 271.98 131.07 329.18 154.75 154.26 63.87 210.39-63 310.58-21.52 109.89 45.5 82.73 183.2 55.85 250.61-25.78 64.66-103.76 182.37-210.37 138.23-106.62-44.14-55.27-171.84-210.63-237.31-37.21-15.68-185.61-67.41-340.86-121.13-53.53 109.86-122.19 211.06-203.25 300.88 70.76 36.69 131.42-6.57 179.85 41.52 63.41 62.95 5.24 151.47-32.69 190.95-36.37 37.87-124.16 98.01-185.68 36.94-51.59-51.22-9.18-112-46.84-183.26-87.23 80.2-185.49 148.59-292.18 202.61 49.09 141.6 97.37 278.32 120.65 334.49 63.89 154.19 193.34 104.15 234.84 204.3 45.52 109.84-71.1 188.01-137.8 216.68-63.97 27.5-202.38 55.62-246.54-50.94-44.17-106.56 82.48-160.57 18.94-316.68-14.97-36.78-81.37-174.31-151.84-319.36-114.97 39.66-237.3 63.58-364.36 69.16 23.52 75.71 95.77 89.3 95.3 157.58-0.63 89.82-104.03 109.96-158.49 110.31-52.22 0.34-156.06-20.76-155.45-107.91 0.51-72.47 72.02-84.93 97.05-160.28-121.22-5.9-238.09-28.51-348.38-65.57-64.36 132.62-125.38 260.27-148.3 315.57-63.89 154.19 63.04 210.3 21.54 310.44-45.52 109.84-183.29 82.7-250.73 55.83-64.68-25.77-182.46-103.72-138.29-210.28 44.16-106.56 171.92-55.24 237.42-210.53 15.25-36.16 64.61-177.43 116.75-327.9-105.36-52.24-202.62-118.41-289.36-196.1-30.44 67.96 7.95 126.17-38.51 173.26-62.98 63.84-151 5.81-190.22-32.09-37.61-36.35-97.236-124.21-36.13-186.15 49.344-50.02 107.2-12.64 174.97-43.75-83.403-90.72-154.02-193.34-209-305.01-139.99 48.52-274.3 95.94-329.85 118.94-154.26 63.86-104.2 193.25-204.39 234.73-109.89 45.5-188.1-71.07-216.79-137.73-27.506-63.94-55.645-202.29 50.968-246.44 106.61-44.13 160.65 82.46 316.82 18.94 36.56-14.86 172.61-80.47 316.76-150.42-37.007-111.25-59.3-229.15-64.584-351.43-69.455 25.72-84.125 94.16-149.91 93.7-89.208-0.63-109.2-104.75-109.55-159.57-0.331-52.59 20.631-157.15 107.18-156.54 69.922 0.5 83.588 68.46 152.94 95.45 6.647-123.93 30.78-243.26 69.977-355.55-130.68-63.34-255.6-122.95-310.15-145.53-154.26-63.87-210.39 63-310.58 21.52-109.89-45.49-82.734-183.2-55.851-250.61 25.782-64.65 103.76-182.37 210.37-138.23 106.61 44.14 55.266 171.84 210.63 237.31 35.861 15.12 175.02 63.71 324.03 115.31 52.609-103.21 118.68-198.45 195.89-283.4-71.189-37.64-132.2 6.27-180.87-42.05-63.407-62.95-5.234-151.48 32.691-190.96 36.371-37.865 124.17-98.01 185.68-36.935 51.92 51.543 8.65 112.77 47.57 184.62 91.27-83.448 194.52-154.01 306.85-208.78z" fill="#ee3a3a"/>
    <g transform="matrix(3.5252 0 0 3.5252 -3269.8 -3330.1)">
        <g opacity=".2">
            <g transform="matrix(.43175 0 0 .43175 636.17 595.18)">
                <circle cx="1699.7" cy="1707.5" r="93.671"/>
            </g>
            <g transform="matrix(.43175 0 0 .43175 817.47 581.31)">
                <circle cx="1569" cy="2155.6" r="164.62"/>
            </g>
            <g transform="matrix(.37094 0 0 .37094 701.54 791.6)">
                <circle cx="1923.8" cy="2525.3" r="104.88"/>
            </g>
            <g transform="matrix(.18741 0 0 .18741 1235.5 1065.4)">
                <circle cx="2485.4" cy="1953.8" r="172.09"/>
            </g>
            <g transform="matrix(.18326 0 0 .18326 830.8 1185.5)" serif:id="circle839">
                <circle cx="2485.4" cy="1953.8" r="172.09"/>
            </g>
            <g transform="matrix(.43175 0 0 .43175 618.83 618.83)">
                <circle cx="2144.1" cy="1513.3" r="41.389"/>
            </g>
            <g transform="matrix(.32065 0 0 .32065 1e3 822.79)" serif:id="circle841">
                <circle cx="2144.1" cy="1513.3" r="41.389"/>
            </g>
            <g transform="matrix(.43175 0 0 .43175 353.65 1040.6)" serif:id="circle841">
                <circle cx="2144.1" cy="1513.3" r="41.389"/>
            </g>
            <g transform="matrix(.43175 0 0 .43175 300.2 771.91)" serif:id="circle841">
                <circle cx="2144.1" cy="1513.3" r="41.389"/>
            </g>
            <g transform="matrix(.22696 0 0 .22696 1222.7 1217.1)">
                <circle cx="2045" cy="1885.9" r="131.02"/>
            </g>
            <g transform="matrix(.33076 0 0 .33076 834.52 979.06)">
                <circle cx="2246.9" cy="2413" r="71.265"/>
            </g>
        </g>
    </g>
</svg>