<svg xmlns="http://www.w3.org/2000/svg" width="32.634" height="30.303" viewBox="0 0 32.634 30.303"><defs><style>.a{fill:#f5f5f7;}</style></defs><path class="a" d="M33.645,13.864H22.93L19.674,4.147a1.18,1.18,0,0,0-2.214,0L14.2,13.864H3.415A1.169,1.169,0,0,0,2.25,15.03a.857.857,0,0,0,.022.2,1.12,1.12,0,0,0,.488.823l8.807,6.206-3.38,9.827a1.169,1.169,0,0,0,.4,1.311,1.127,1.127,0,0,0,.656.284,1.428,1.428,0,0,0,.728-.262l8.6-6.126,8.6,6.126a1.365,1.365,0,0,0,.728.262,1.046,1.046,0,0,0,.648-.284,1.155,1.155,0,0,0,.4-1.311l-3.38-9.827,8.734-6.265.211-.182a1.222,1.222,0,0,0,.379-.779A1.234,1.234,0,0,0,33.645,13.864Z" transform="translate(-2.25 -3.375)"/></svg>