<?xml version="1.0" encoding="utf-8"?>
<!-- Generator: Adobe Illustrator 25.0.1, SVG Export Plug-In . SVG Version: 6.00 Build 0)  -->
<svg version="1.1" id="Ebene_1" xmlns="http://www.w3.org/2000/svg" xmlns:xlink="http://www.w3.org/1999/xlink" x="0px" y="0px"
	 viewBox="0 0 600 600" style="enable-background:new 0 0 600 600;" xml:space="preserve">
<style type="text/css">
	.st0{fill-rule:evenodd;clip-rule:evenodd;fill:#FF172D;}
	.st1{fill-rule:evenodd;clip-rule:evenodd;fill:#BE2D2E;}
</style>
<path class="st0" d="M585.4,383.6c-15.3-6.4-23.9,13.1-47.5,3.3c-8.8-3.6-29.4-13.5-50.4-23.7c5.3-16.1,8.5-33,9.5-50.6
	c12.3,3.6,14,15.2,25.3,15.2c13.2,0.1,16.5-15.9,16.4-24c-0.1-8.4-3.1-24.3-16.8-24.4c-10.6-0.1-12.5,11.6-24.8,14.9
	c-0.7-19.7-4.3-38.8-10.4-56.6c23-11.2,45.3-22,51.2-24.3c23.9-9.7,32.2,9.7,48.5,2.9c16.3-6.8,12-27.9,7.8-37.7
	c-4.4-10.2-16.4-28.1-33.2-21.1c-15.3,6.4-7.7,26.2-31.3,35.9c-8.9,3.7-31,11.5-53.5,19.3c-8.4-16.7-19.2-32.1-31.8-45.7
	c11.3-6.8,20.9,0.3,29-7.9c9.4-9.5,0.2-22.9-5.5-28.5c-6-5.8-19.5-14.7-29.1-4.9c-7.6,7.7-0.3,17.4-7,28.7
	c-13.2-11.9-27.9-22-43.9-30c8.4-24.3,16.7-47.9,19.1-53.8c10-23.8,29.6-15.9,36.3-32.2c6.8-16.3-11.3-28.2-21.2-32.2
	c-10.3-4.1-31.4-8.3-38.4,8.5c-6.4,15.3,13.1,23.9,3.3,47.5c-3.7,8.9-13.9,30.2-24.3,51.6c-16.5-5.6-34-9.1-52.2-10.1
	c3.5-12.5,15.1-14.2,15.2-25.6c0.1-13.3-15.8-16.6-23.8-16.5c-8.3,0.1-24.2,3.1-24.3,16.9c-0.1,10.7,11.6,12.6,14.9,25
	c-19.1,0.6-37.5,4-54.9,9.7c-11.1-22.9-21.8-44.9-24.1-50.7c-9.7-23.9,9.7-32.2,2.9-48.5c-6.8-16.3-28-12-37.7-7.8
	c-10.2,4.4-28.1,16.4-21.1,33.2c6.4,15.3,26.2,7.7,36,31.3c3.6,8.8,11.3,30.5,19,52.7l0,0c-17.2,8.4-33,19.2-47,32
	c-6-11,0.7-20.4-7.3-28.3c-9.4-9.4-22.9-0.1-28.4,5.7c-5.8,6-14.7,19.6-5,29.2c7.5,7.4,16.8,0.7,27.7,6.4
	c-11.8,13-21.9,27.6-30,43.4c-22.8-7.9-44.1-15.3-49.6-17.7c-23.8-10-15.9-29.6-32.2-36.3c-16.3-6.8-28.3,11.3-32.2,21.2
	c-4.1,10.3-8.3,31.4,8.6,38.4c15.3,6.4,23.9-13.1,47.5-3.3c8.4,3.5,27.5,12.6,47.5,22.3c-6,17.2-9.7,35.5-10.7,54.4
	c-10.6-4.1-12.7-14.5-23.4-14.6c-13.2-0.1-16.5,15.9-16.4,24c0.1,8.4,3.1,24.3,16.8,24.4c10.1,0.1,12.3-10.4,22.9-14.3
	c0.8,18.7,4.2,36.8,9.9,53.8c-22.1,10.7-42.9,20.8-48.5,23c-23.9,9.7-32.2-9.7-48.5-2.9C-2.3,391,2,412.2,6.2,422
	c4.4,10.2,16.4,28.1,33.2,21.1c15.3-6.4,7.7-26.2,31.3-35.9c8.5-3.5,29.1-10.8,50.5-18.2c8.4,17.1,19.2,32.8,32,46.7
	c-10.4,4.8-19.2-1-26.8,6.7c-9.4,9.5-0.2,22.9,5.5,28.5c6,5.8,19.5,14.7,29.1,4.9c7.1-7.2,1.2-16.1,5.9-26.5
	c13.3,11.9,28.2,22,44.3,30c-8,23-15.5,44.7-17.9,50.2c-10,23.8-29.6,15.9-36.3,32.2c-6.8,16.3,11.3,28.2,21.2,32.2
	c10.3,4.1,31.4,8.3,38.4-8.5c6.4-15.3-13.1-23.9-3.3-47.5c3.5-8.5,12.9-28,22.7-48.3c16.9,5.7,34.8,9.1,53.3,10
	c-3.8,11.5-14.8,13.4-14.9,24.5c-0.1,13.3,15.8,16.6,23.8,16.5c8.3-0.1,24.2-3.1,24.3-16.9c0.1-10.5-11-12.5-14.6-24.1
	c19.5-0.9,38.2-4.5,55.8-10.6c10.8,22.2,21,43.3,23.2,48.9c9.7,23.9-9.7,32.2-2.9,48.5c6.8,16.3,27.9,12,37.7,7.8
	c10.2-4.4,28.1-16.4,21.1-33.2c-6.4-15.3-26.2-7.7-36-31.3c-3.6-8.6-11-29.5-18.5-51.2c16.3-8.3,31.4-18.7,44.7-31
	c5.8,10.9-0.7,20.2,7.2,28.1c9.4,9.3,22.9,0.1,28.4-5.7c5.8-6,14.7-19.6,5-29.2c-7.4-7.4-16.7-0.7-27.5-6.4
	c12.4-13.8,22.9-29.2,31.1-46.1c23.8,8.2,46.5,16.1,52.2,18.5c23.8,10,15.9,29.6,32.2,36.3c16.3,6.8,28.3-11.3,32.2-21.2
	C598.1,411.6,602.3,390.5,585.4,383.6z"/>
<g>
	<circle class="st1" cx="300.2" cy="300.2" r="38.4"/>
	
		<ellipse transform="matrix(0.9239 -0.3827 0.3827 0.9239 -59.8605 104.5092)" class="st1" cx="232.8" cy="202.7" rx="22.3" ry="22.3"/>
	
		<ellipse transform="matrix(0.9871 -0.1602 0.1602 0.9871 -48.3464 34.1877)" class="st1" cx="187.9" cy="317" rx="16.7" ry="16.7"/>
	<circle class="st1" cx="153.8" cy="253.4" r="8.4"/>
	<circle class="st1" cx="183.8" cy="398.4" r="8.4"/>
	<circle class="st1" cx="403.7" cy="190.1" r="8.4"/>
	<ellipse transform="matrix(0.9239 -0.3827 0.3827 0.9239 -40.4534 138.1195)" class="st1" cx="327" cy="170.7" rx="8.4" ry="8.4"/>
	<circle class="st1" cx="344.9" cy="443.3" r="12.7"/>
	<circle class="st1" cx="257.1" cy="416.9" r="21"/>
	<circle class="st1" cx="411.3" cy="257.5" r="16.7"/>
	
		<ellipse transform="matrix(0.9571 -0.2898 0.2898 0.9571 -90.5042 132.7802)" class="st1" cx="403.1" cy="372" rx="16.7" ry="16.7"/>
</g>
</svg>
