<svg xmlns="http://www.w3.org/2000/svg" width="121" height="120.968" viewBox="0 0 121 120.968"><defs><style>.a{fill:#f5f5f7;fill-rule:evenodd;}.b{opacity:0.2;}</style></defs><g transform="translate(-54.538 -55.599)"><path className="a" d="M97.206,80.187c-1.564-4.514-3.119-8.926-3.86-10.713-1.987-4.795-6.013-3.239-7.3-6.353-1.416-3.416,2.211-5.847,4.285-6.738,1.989-.855,6.294-1.73,7.667,1.584s-2.565,4.993-.589,9.848c.478,1.175,2.645,5.657,4.9,10.305a40.131,40.131,0,0,1,11.154-1.962c-.667-2.521-3.033-2.909-3.017-5.088.02-2.793,3.235-3.42,4.928-3.43,1.624-.01,4.853.646,4.834,3.356-.017,2.323-2.377,2.663-3.085,5.205a40.071,40.071,0,0,1,10.6,2.049c2.118-4.359,4.187-8.674,4.939-10.487,1.987-4.795-1.96-6.54-.67-9.654,1.416-3.416,5.7-2.572,7.8-1.736,2.011.8,5.674,3.225,4.3,6.539s-5.346,1.718-7.383,6.547c-.5,1.183-2.17,5.979-3.881,10.921a40.379,40.379,0,0,1,8.927,6.1c1.359-2.306-.116-4.269,1.43-5.836,1.959-1.985,4.7-.181,5.915,1,1.17,1.13,3.024,3.863,1.124,5.789-1.641,1.663-3.585.218-5.885,1.6a40.368,40.368,0,0,1,6.454,9.275c4.57-1.581,9.062-3.162,10.871-3.911,4.8-1.986,3.24-6.01,6.356-7.3,3.417-1.415,5.85,2.21,6.742,4.283.855,1.988,1.73,6.291-1.585,7.663s-5-2.564-9.852-.589c-1.183.481-5.713,2.669-10.391,4.94a40.044,40.044,0,0,1,2.121,11.5c2.484-.68,2.873-3.047,5.031-3.032,2.774.02,3.4,3.257,3.407,4.962.01,1.635-.642,4.887-3.333,4.868-2.3-.016-2.642-2.373-5.137-3.1a40.048,40.048,0,0,1-1.922,10.278c4.274,2.074,8.458,4.076,10.237,4.812,4.8,1.986,6.543-1.959,9.658-.669,3.417,1.415,2.573,5.7,1.737,7.793-.8,2.011-3.227,5.671-6.542,4.3s-1.719-5.344-6.55-7.38c-1.157-.488-5.772-2.1-10.6-3.767a40.358,40.358,0,0,1-6.321,9.357c2.2,1.141,4.087-.2,5.593,1.291,1.972,1.958.163,4.71-1.017,5.938-1.131,1.178-3.861,3.048-5.774,1.149-1.6-1.593-.285-3.483-1.457-5.7a40.385,40.385,0,0,1-9.086,6.3c1.527,4.4,3.028,8.655,3.752,10.4,1.987,4.795,6.012,3.239,7.3,6.353,1.416,3.416-2.211,5.847-4.285,6.738-1.989.855-6.294,1.73-7.667-1.584s2.565-4.993.589-9.848c-.466-1.144-2.53-5.421-4.722-9.931a40.1,40.1,0,0,1-11.331,2.151c.731,2.354,2.978,2.777,2.964,4.9-.02,2.793-3.235,3.42-4.929,3.43-1.624.011-4.853-.646-4.834-3.356.016-2.254,2.24-2.641,3.018-4.984A40.092,40.092,0,0,1,102,154.523c-2,4.124-3.9,8.094-4.612,9.814-1.987,4.795,1.96,6.54.67,9.654-1.416,3.416-5.7,2.572-7.8,1.736-2.011-.8-5.674-3.225-4.3-6.539s5.346-1.718,7.383-6.547c.474-1.125,2.009-5.518,3.631-10.2a40.375,40.375,0,0,1-9-6.1c-.947,2.113.247,3.924-1.2,5.388-1.959,1.985-4.7.181-5.915-1-1.17-1.13-3.024-3.863-1.124-5.789,1.535-1.556,3.334-.393,5.441-1.361a40.359,40.359,0,0,1-6.5-9.485c-4.353,1.509-8.53,2.984-10.258,3.7-4.8,1.986-3.24,6.01-6.356,7.3-3.417,1.415-5.85-2.21-6.742-4.283-.855-1.988-1.73-6.291,1.585-7.664s5,2.564,9.853.589c1.137-.462,5.368-2.5,9.851-4.678A40.06,40.06,0,0,1,74.6,118.134c-2.16.8-2.616,2.928-4.662,2.914-2.774-.02-3.4-3.258-3.407-4.962-.01-1.635.642-4.887,3.333-4.868,2.174.016,2.6,2.129,4.756,2.968A40.013,40.013,0,0,1,76.8,103.129c-4.064-1.97-7.949-3.824-9.645-4.526-4.8-1.986-6.543,1.959-9.659.669-3.417-1.415-2.573-5.7-1.737-7.793.8-2.01,3.227-5.671,6.542-4.3s1.719,5.344,6.55,7.38c1.115.47,5.443,1.981,10.077,3.586a40.359,40.359,0,0,1,6.092-8.813c-2.214-1.171-4.111.195-5.625-1.308-1.972-1.958-.163-4.711,1.017-5.938,1.131-1.178,3.861-3.048,5.774-1.149,1.615,1.6.269,3.507,1.479,5.741a40.37,40.37,0,0,1,9.542-6.493Z"/><g transform="translate(-48.842 -49.689)"><g className="b"><g transform="translate(69.743 65.25)"><circle cx="4.434" cy="4.434" r="4.434" transform="translate(76.018 76.386)"/></g><g transform="translate(89.619 63.729)"><circle cx="7.792" cy="7.792" r="7.792" transform="translate(66.473 94.239)"/></g><g transform="translate(76.91 86.784)"><circle cx="4.265" cy="4.265" r="4.265" transform="translate(73.967 98.43)"/></g><g transform="translate(135.443 116.798)"><circle cx="3.536" cy="3.536" r="3.536" transform="translate(47.528 36.607)"/></g><g transform="translate(91.081 129.963)"><circle cx="3.458" cy="3.458" r="3.458" transform="translate(46.476 35.796)"/></g><g transform="translate(67.842 67.842)"><circle cx="1.959" cy="1.959" r="1.959" transform="translate(99.527 69.669)"/></g><g transform="translate(109.63 90.202)"><circle cx="1.455" cy="1.455" r="1.455" transform="translate(73.916 51.742)"/></g><g transform="translate(38.771 114.077)"><circle cx="1.959" cy="1.959" r="1.959" transform="translate(99.527 69.669)"/></g><g transform="translate(32.91 84.624)"><circle cx="1.959" cy="1.959" r="1.959" transform="translate(99.527 69.669)"/></g><g transform="translate(134.049 133.431)"><circle cx="3.26" cy="3.26" r="3.26" transform="translate(47.622 43.664)"/></g><g transform="translate(91.488 107.334)"><circle cx="2.584" cy="2.584" r="2.584" transform="translate(78.89 84.915)"/></g></g></g></g></svg>