<?xml version="1.0" encoding="utf-8"?>
<!-- Generator: Adobe Illustrator 25.0.1, SVG Export Plug-In . SVG Version: 6.00 Build 0)  -->
<svg version="1.1" id="Ebene_1" xmlns="http://www.w3.org/2000/svg" xmlns:xlink="http://www.w3.org/1999/xlink" x="0px" y="0px"
	 viewBox="0 0 600 600" style="enable-background:new 0 0 600 600;" xml:space="preserve">
<style type="text/css">
	.st0{fill-rule:evenodd;clip-rule:evenodd;fill:#D23C43;}
	.st1{fill-rule:evenodd;clip-rule:evenodd;fill:#9C3A3A;}
</style>
<path id="path2" class="st0" d="M213.7,127.4c-7.5-21.8-15-43.1-18.6-51.7c-9.6-23.1-29-15.6-35.2-30.6
	c-6.8-16.5,10.7-28.2,20.7-32.5c9.6-4.1,30.4-8.3,37,7.6s-12.4,24.1-2.8,47.5c2.3,5.7,12.8,27.3,23.7,49.7c17-5.6,35.1-8.8,53.8-9.5
	c-3.2-12.2-14.6-14-14.6-24.5c0.1-13.5,15.6-16.5,23.8-16.5c7.8-0.1,23.4,3.1,23.3,16.2c-0.1,11.2-11.5,12.8-14.9,25.1
	c17.8,1,34.9,4.4,51.1,9.9C371,97,381,76.2,384.7,67.4c9.6-23.1-9.5-31.5-3.2-46.6c6.8-16.5,27.5-12.4,37.6-8.4
	c9.7,3.9,27.4,15.6,20.7,31.5s-25.8,8.3-35.6,31.6c-2.4,5.7-10.5,28.8-18.7,52.7c15.7,7.9,30.2,17.8,43.1,29.4
	c6.6-11.1-0.6-20.6,6.9-28.2c9.4-9.6,22.7-0.9,28.5,4.8c5.6,5.5,14.6,18.6,5.4,27.9c-7.9,8-17.3,1.1-28.4,7.7
	c12.4,13.3,22.9,28.4,31.1,44.7c22-7.6,43.7-15.3,52.4-18.9c23.1-9.6,15.6-29,30.7-35.2c16.5-6.8,28.2,10.7,32.5,20.7
	c4.1,9.6,8.3,30.3-7.6,37s-24.1-12.4-47.5-2.8c-5.7,2.3-27.6,12.9-50.1,23.8c6,17.5,9.5,36.1,10.2,55.5c12-3.3,13.9-14.7,24.3-14.6
	c13.4,0.1,16.4,15.7,16.4,23.9c0,7.9-3.1,23.6-16.1,23.5c-11.1-0.1-12.7-11.4-24.8-14.9c-0.9,17.2-4.1,33.8-9.3,49.6
	c20.6,10,40.8,19.7,49.4,23.2c23.1,9.6,31.6-9.5,46.6-3.2c16.5,6.8,12.4,27.5,8.4,37.6c-3.9,9.7-15.6,27.4-31.6,20.7
	c-16-6.6-8.3-25.8-31.6-35.6c-5.6-2.4-27.8-10.1-51.1-18.2c-8,16.5-18.3,31.7-30.5,45.1c10.6,5.5,19.7-1,27,6.2
	c9.5,9.4,0.8,22.7-4.9,28.6c-5.5,5.7-18.6,14.7-27.9,5.5c-7.7-7.7-1.4-16.8-7-27.5c-13.1,12-27.8,22.3-43.8,30.4
	c7.4,21.2,14.6,41.7,18.1,50.2c9.6,23.1,29,15.6,35.2,30.6c6.8,16.5-10.7,28.2-20.7,32.5c-9.6,4.1-30.4,8.3-37-7.6
	c-6.6-16,12.4-24.1,2.8-47.5c-2.2-5.5-12.2-26.1-22.8-47.9c-17.2,5.9-35.6,9.5-54.7,10.4c3.5,11.4,14.4,13.4,14.3,23.6
	c-0.1,13.5-15.6,16.5-23.8,16.5c-7.8,0.1-23.4-3.1-23.3-16.2c0.1-10.9,10.8-12.7,14.6-24c-18.2-0.9-35.7-4.3-52.3-9.8
	c-9.7,19.9-18.8,39-22.2,47.3c-9.6,23.1,9.5,31.5,3.2,46.6c-6.8,16.5-27.5,12.4-37.6,8.4c-9.7-3.9-27.4-15.6-20.7-31.5
	c6.6-16,25.8-8.3,35.6-31.6c2.3-5.4,9.7-26.6,17.5-49.2c-15.8-7.8-30.4-17.8-43.4-29.4c-4.6,10.2,1.2,18.9-5.8,26
	c-9.4,9.6-22.7,0.9-28.5-4.8c-5.6-5.5-14.6-18.6-5.4-27.9c7.4-7.5,16.1-1.9,26.2-6.6c-12.5-13.6-23.1-29-31.3-45.8
	c-21,7.3-41.1,14.4-49.5,17.8c-23.1,9.6-15.6,29-30.7,35.2c-16.5,6.8-28.2-10.7-32.5-20.7c-4.1-9.6-8.3-30.3,7.6-37
	c16-6.6,24.1,12.4,47.5,2.8c5.5-2.2,25.9-12.1,47.5-22.6c-5.6-16.7-8.9-34.4-9.7-52.7c-10.4,3.9-12.6,14.1-22.5,14.1
	c-13.4-0.1-16.4-15.7-16.4-23.9c0-7.9,3.1-23.6,16.1-23.5c10.5,0.1,12.5,10.3,22.9,14.3c1-18.6,4.6-36.5,10.5-53.3
	c-19.6-9.5-38.3-18.4-46.5-21.8c-23.1-9.6-31.6,9.4-46.6,3.2c-16.5-6.8-12.4-27.5-8.4-37.6c3.9-9.7,15.6-27.4,31.6-20.7
	c16,6.6,8.3,25.8,31.6,35.6c5.4,2.3,26.3,9.6,48.6,17.3c7.9-15.5,17.8-29.8,29.4-42.5c-10.7-5.6-19.8,0.9-27.1-6.3
	c-9.5-9.4-0.8-22.7,4.9-28.6c5.5-5.7,18.6-14.7,27.9-5.5c7.8,7.7,1.3,16.9,7.1,27.7C181.3,146.2,196.8,135.6,213.7,127.4
	L213.7,127.4z"/>
<g>
	
		<ellipse transform="matrix(0.9871 -0.1602 0.1602 0.9871 -44.2597 51.8809)" class="st1" cx="299.7" cy="300.5" rx="37.5" ry="37.5"/>
	
		<ellipse transform="matrix(0.9871 -0.1602 0.1602 0.9871 -29.812 40.0707)" class="st1" cx="233.6" cy="204.9" rx="21.9" ry="21.9"/>
	<circle class="st1" cx="189.8" cy="317.1" r="16.7"/>
	<circle class="st1" cx="408.8" cy="257.9" r="16.7"/>
	
		<ellipse transform="matrix(0.9871 -0.1602 0.1602 0.9871 -54.2138 69.1053)" class="st1" cx="401.5" cy="370.8" rx="16.7" ry="16.7"/>
	
		<ellipse transform="matrix(0.9732 -0.2298 0.2298 0.9732 -88.4727 69.8032)" class="st1" cx="255.5" cy="414.8" rx="20.6" ry="20.6"/>
	
		<ellipse transform="matrix(0.9732 -0.2298 0.2298 0.9732 -92.0527 90.6972)" class="st1" cx="343.5" cy="440.7" rx="12.5" ry="12.5"/>
	
		<ellipse transform="matrix(0.9871 -0.1602 0.1602 0.9871 -38.7433 28.5706)" class="st1" cx="157.8" cy="254.6" rx="9.5" ry="9.5"/>
	
		<ellipse transform="matrix(0.7071 -0.7071 0.7071 0.7071 -226.0607 247.4774)" class="st1" cx="185.7" cy="396.6" rx="9.5" ry="9.5"/>
	
		<ellipse transform="matrix(0.7071 -0.7071 0.7071 0.7071 -27.3034 281.3128)" class="st1" cx="325.9" cy="173.6" rx="9.5" ry="9.5"/>
	<ellipse transform="matrix(0.7071 -0.7071 0.7071 0.7071 -18.5611 340.3223)" class="st1" cx="401.5" cy="192.6" rx="7" ry="7"/>
</g>
</svg>
